# xmcd
#
# Track frame offsets:
#	150
#	17425
#	46505
#	64215
#
# Disc length: 1092 seconds
#
# Revision: 1
# Processed by: cddbd v1.5PL3 Copyright (c) Steve Scherf et al.
# Submitted via: EasyCDDAExtractor 6.5.0.1
#
DISCID=24044204
DTITLE=Tracy Shaw - Happenin' All Over Again
DYEAR=1900
DGENRE=
TTITLE0=Happenin' All Over Again(7 Inch Edit)
TTITLE1=Happenin' All Over Again(Take Your Pick Mix)
TTITLE2=Happenin' All Over Again(Nailgrinder Mix)
TTITLE3=Happenin' All Over Again(Instrumental Mix)
EXTD=
EXTT0=
EXTT1=
EXTT2=
EXTT3=
PLAYORDER=
